<mxfile host="app.diagrams.net" modified="2024-04-23T10:57:21.616Z" agent="Mozilla/5.0 (Windows NT 10.0; Win64; x64) AppleWebKit/537.36 (KHTML, like Gecko) Chrome/124.0.0.0 Safari/537.36 Edg/124.0.0.0" version="24.2.5" etag="_Y_V6glKmo0Fih1XuSax" type="github">
  <diagram name="Page-1" id="M_XozJjfeCaEbn9VPEGA">
    <mxGraphModel>
      <root>
        <mxCell id="0" />
        <mxCell id="1" parent="0" />
      </root>
    </mxGraphModel>
  </diagram>
</mxfile>
